<svg xmlns="http://www.w3.org/2000/svg" viewBox="0 0 128 128" width="128" height="128"
     role="img" aria-label="tessl — tessellated t · glass">
  <title>tessl — tessellated t · glass</title>
  <defs>
    <filter id="agglow" x="-50%" y="-50%" width="200%" height="200%">
      <feGaussianBlur stdDeviation="3.2" result="b"/>
      <feMerge><feMergeNode in="b"/><feMergeNode in="SourceGraphic"/></feMerge>
    </filter>
    <clipPath id="agclip"><rect x="6" y="6" width="116" height="116" rx="26"/></clipPath>
  </defs>
  <rect x="6" y="6" width="116" height="116" rx="26" fill="#000000"/>
  <g clip-path="url(#agclip)">
  <g transform="skewX(-5) translate(4,0)">
    <rect x="59.0" y="20.0" width="18" height="18" rx="3.0" fill="rgba(255,255,255,0.08)" stroke="rgba(255,255,255,0.22)" stroke-width="1.4"/>
    <rect x="17.0" y="41.0" width="18" height="18" rx="3.0" fill="rgba(255,255,255,0.08)" stroke="rgba(255,255,255,0.22)" stroke-width="1.4"/>
    <rect x="38.0" y="41.0" width="18" height="18" rx="3.0" fill="rgba(255,255,255,0.08)" stroke="rgba(255,255,255,0.22)" stroke-width="1.4"/>
    <rect x="59.0" y="41.0" width="18" height="18" rx="3.0" fill="#5865F2"/>
    <rect x="80.0" y="41.0" width="18" height="18" rx="3.0" fill="rgba(255,255,255,0.08)" stroke="rgba(255,255,255,0.22)" stroke-width="1.4"/>
    <rect x="101.0" y="41.0" width="18" height="18" rx="3.0" fill="rgba(255,255,255,0.08)" stroke="rgba(255,255,255,0.22)" stroke-width="1.4"/>
    <rect x="59.0" y="62.0" width="18" height="18" rx="3.0" fill="rgba(255,255,255,0.08)" stroke="rgba(255,255,255,0.22)" stroke-width="1.4"/>
    <rect x="59.0" y="83.0" width="18" height="18" rx="3.0" fill="rgba(255,255,255,0.08)" stroke="rgba(255,255,255,0.22)" stroke-width="1.4"/>
    <rect x="59.0" y="104.0" width="18" height="18" rx="3.0" fill="rgba(255,255,255,0.08)" stroke="rgba(255,255,255,0.22)" stroke-width="1.4"/>
    <rect x="80.0" y="104.0" width="18" height="18" rx="3.0" fill="rgba(255,255,255,0.08)" stroke="rgba(255,255,255,0.22)" stroke-width="1.4"/>
  </g>
  <g transform="skewX(-5) translate(4,0)" filter="url(#agglow)" opacity="0.75">
    <rect x="59.0" y="41.0" width="18" height="18" rx="3.0" fill="#5865F2"/>
  </g>
  </g>
  <rect x="6.5" y="6.5" width="115" height="115" rx="25.5" fill="none" stroke="rgba(255,255,255,0.22)" stroke-width="1"/>
</svg>
