<svg xmlns="http://www.w3.org/2000/svg" viewBox="0 0 720 560" role="img"><title>Qwen3.5-2B train_step, before vs after the step-waste changes (M5 Pro, min of 3 rounds)</title><style>
text{font-family:-apple-system,Helvetica,Arial,sans-serif;font-size:12px;fill:#52514e}
.t{font-size:14px;font-weight:600;fill:#0b0b0b}.g{stroke:#e1e0d9;stroke-width:1}.b{fill:#898781}.a{fill:#2a78d6}.c{fill:#6250d6}
.v{fill:#0b0b0b;font-size:11px}
@media (prefers-color-scheme:dark){text{fill:#c3c2b7}.t,.v{fill:#f0efec}.g{stroke:#2c2c2a}.a{fill:#3987e5}.c{fill:#9085e9}}
.bg{fill:#fff}@media (prefers-color-scheme:dark){.bg{fill:#1a1a19}}</style>
<rect class="bg" width="100%" height="100%"/>
<rect class="b" x="60" y="11" width="10" height="10" rx="2"/><text x="74" y="20">before</text>
<rect class="a" x="150" y="11" width="10" height="10" rx="2"/><text x="164" y="20">after</text>
<text class="t" x="60" y="52">T = 256 — seconds, lower is better</text>
<line class="g" x1="60" x2="690" y1="240.0" y2="240.0"/><text x="54" y="244.0" text-anchor="end">0 s</text>
<line class="g" x1="60" x2="690" y1="197.5" y2="197.5"/><text x="54" y="201.5" text-anchor="end">0.625 s</text>
<line class="g" x1="60" x2="690" y1="155.0" y2="155.0"/><text x="54" y="159.0" text-anchor="end">1.25 s</text>
<line class="g" x1="60" x2="690" y1="112.5" y2="112.5"/><text x="54" y="116.5" text-anchor="end">1.875 s</text>
<line class="g" x1="60" x2="690" y1="70.0" y2="70.0"/><text x="54" y="74.0" text-anchor="end">2.5 s</text>
<text x="138.75" y="258" text-anchor="middle">sync</text>
<rect class="b" x="112.75" y="115.28799999999998" width="24" height="124.71200000000002" rx="3"/><text class="v" x="124.75" y="111.28799999999998" text-anchor="middle">1.83</text>
<rect class="a" x="138.75" y="132.832" width="24" height="107.168" rx="3"/><text class="v" x="150.75" y="128.832" text-anchor="middle">1.58</text>
<text x="296.25" y="258" text-anchor="middle">sync + mc128</text>
<rect class="b" x="270.25" y="107.80799999999999" width="24" height="132.192" rx="3"/><text class="v" x="282.25" y="103.80799999999999" text-anchor="middle">1.94</text>
<rect class="a" x="296.25" y="130.18" width="24" height="109.82000000000001" rx="3"/><text class="v" x="308.25" y="126.18" text-anchor="middle">1.61</text>
<text x="453.75" y="258" text-anchor="middle">async</text>
<rect class="b" x="427.75" y="132.016" width="24" height="107.98400000000001" rx="3"/><text class="v" x="439.75" y="128.016" text-anchor="middle">1.59</text>
<rect class="a" x="453.75" y="166.356" width="24" height="73.64399999999999" rx="3"/><text class="v" x="465.75" y="162.356" text-anchor="middle">1.08</text>
<text x="611.25" y="258" text-anchor="middle">async + mc128</text>
<rect class="b" x="585.25" y="135.95999999999998" width="24" height="104.04" rx="3"/><text class="v" x="597.25" y="131.95999999999998" text-anchor="middle">1.53</text>
<rect class="a" x="611.25" y="169.688" width="24" height="70.312" rx="3"/><text class="v" x="623.25" y="165.688" text-anchor="middle">1.03</text>
<text class="t" x="60" y="312">T = 2048 — seconds, lower is better</text>
<line class="g" x1="60" x2="690" y1="500.0" y2="500.0"/><text x="54" y="504.0" text-anchor="end">0 s</text>
<line class="g" x1="60" x2="690" y1="457.5" y2="457.5"/><text x="54" y="461.5" text-anchor="end">2.5 s</text>
<line class="g" x1="60" x2="690" y1="415.0" y2="415.0"/><text x="54" y="419.0" text-anchor="end">5 s</text>
<line class="g" x1="60" x2="690" y1="372.5" y2="372.5"/><text x="54" y="376.5" text-anchor="end">7.5 s</text>
<line class="g" x1="60" x2="690" y1="330.0" y2="330.0"/><text x="54" y="334.0" text-anchor="end">10 s</text>
<text x="138.75" y="518" text-anchor="middle">sync</text>
<rect class="b" x="112.75" y="353.95300000000003" width="24" height="146.04699999999997" rx="3"/><text class="v" x="124.75" y="349.95300000000003" text-anchor="middle">8.59</text>
<rect class="a" x="138.75" y="378.399" width="24" height="121.601" rx="3"/><text class="v" x="150.75" y="374.399" text-anchor="middle">7.15</text>
<text x="296.25" y="518" text-anchor="middle">sync + mc128</text>
<rect class="b" x="270.25" y="376.852" width="24" height="123.148" rx="3"/><text class="v" x="282.25" y="372.852" text-anchor="middle">7.24</text>
<rect class="a" x="296.25" y="368.318" width="24" height="131.68200000000002" rx="3"/><text class="v" x="308.25" y="364.318" text-anchor="middle">7.75</text>
<text x="453.75" y="518" text-anchor="middle">async</text>
<rect class="b" x="427.75" y="376.767" width="24" height="123.23299999999999" rx="3"/><text class="v" x="439.75" y="372.767" text-anchor="middle">7.25</text>
<rect class="a" x="453.75" y="381.35699999999997" width="24" height="118.643" rx="3"/><text class="v" x="465.75" y="377.35699999999997" text-anchor="middle">6.98</text>
<text x="611.25" y="518" text-anchor="middle">async + mc128</text>
<rect class="b" x="585.25" y="370.545" width="24" height="129.45499999999998" rx="3"/><text class="v" x="597.25" y="366.545" text-anchor="middle">7.62</text>
<rect class="a" x="611.25" y="373.469" width="24" height="126.53099999999999" rx="3"/><text class="v" x="623.25" y="369.469" text-anchor="middle">7.44</text>
</svg>