<svg xmlns="http://www.w3.org/2000/svg" viewBox="0 0 880 726" role="img"><title>Qwen3.5 memory and training, M5 Pro</title><style>
text{font-family:-apple-system,Helvetica,Arial,sans-serif;font-size:11px;fill:#52514e}
.t{font-size:13px;font-weight:600;fill:#0b0b0b}.st{font-size:11px;fill:#52514e}.g{stroke:#e1e0d9;stroke-width:1}
.ref{stroke:#0b0b0b;stroke-width:1.2;stroke-dasharray:4 3}.lim{stroke:#d03b3b;stroke-width:1.2;stroke-dasharray:4 3}
.v{fill:#0b0b0b;font-size:10px}.k0{fill:#898781}.k1{fill:#2a78d6}.k2{fill:#eb6834}.k3{fill:#6250d6}.k4{fill:#1baf7a}.k5{fill:#e87ba4}
.fast{fill:#2a78d6}.slow{fill:#e34948}.bg{fill:#fff}
@media (prefers-color-scheme:dark){.bg{fill:#1a1a19}text{fill:#c3c2b7}.t,.v{fill:#f0efec}.g{stroke:#2c2c2a}.ref{stroke:#f0efec}
.k1{fill:#3987e5}.k2{fill:#d95926}.k3{fill:#9085e9}.k4{fill:#199e70}.k5{fill:#d55181}.fast{fill:#3987e5}.slow{fill:#e66767}}
</style>
<rect class="bg" width="100%" height="100%"/>
<text class="t" x="20" y="26">Qwen3.5 — loader memory, 4B training footprint, bf16 operands</text>
<rect class="k0" x="20" y="40" width="10" height="10" rx="2"/><text x="34" y="49">before</text>
<rect class="k1" x="94" y="40" width="10" height="10" rx="2"/><text x="108" y="49">after</text>
<rect class="k4" x="161" y="40" width="10" height="10" rx="2"/><text x="175" y="49">device bytes (the floor)</text>
<text class="t" x="60" y="72">Qwen3.5-2B load: peak host footprint, min of 3 rounds (lower is better)</text>
<line class="g" x1="60" x2="740" y1="244.0" y2="244.0"/><text x="54" y="248.0" text-anchor="end">0 GB</text>
<line class="g" x1="60" x2="740" y1="206.5" y2="206.5"/><text x="54" y="210.5" text-anchor="end">3 GB</text>
<line class="g" x1="60" x2="740" y1="169.0" y2="169.0"/><text x="54" y="173.0" text-anchor="end">6 GB</text>
<line class="g" x1="60" x2="740" y1="131.5" y2="131.5"/><text x="54" y="135.5" text-anchor="end">9 GB</text>
<line class="g" x1="60" x2="740" y1="94.0" y2="94.0"/><text x="54" y="98.0" text-anchor="end">12 GB</text>
<text x="173.33333333333331" y="258" text-anchor="middle">--bf16</text>
<rect class="k0" x="138.83333333333331" y="157.125" width="22" height="86.875" rx="2"/>
<text class="v" x="149.83333333333331" y="154.125" text-anchor="middle">6.95</text>
<rect class="k1" x="161.83333333333331" y="170.75" width="22" height="73.25" rx="2"/>
<text class="v" x="172.83333333333331" y="167.75" text-anchor="middle">5.86</text>
<rect class="k4" x="184.83333333333331" y="184.25" width="22" height="59.75" rx="2"/>
<text class="v" x="195.83333333333331" y="181.25" text-anchor="middle">4.78</text>
<text x="400.0" y="258" text-anchor="middle">--bf16 --tower</text>
<rect class="k0" x="365.5" y="169.875" width="22" height="74.125" rx="2"/>
<text class="v" x="376.5" y="166.875" text-anchor="middle">5.93</text>
<rect class="k1" x="388.5" y="196.125" width="22" height="47.875" rx="2"/>
<text class="v" x="399.5" y="193.125" text-anchor="middle">3.83</text>
<rect class="k4" x="411.5" y="196.875" width="22" height="47.125" rx="2"/>
<text class="v" x="422.5" y="193.875" text-anchor="middle">3.77</text>
<text x="626.6666666666666" y="258" text-anchor="middle">--f32</text>
<rect class="k0" x="592.1666666666666" y="109.12500000000003" width="22" height="134.87499999999997" rx="2"/>
<text class="v" x="603.1666666666666" y="106.12500000000003" text-anchor="middle">10.79</text>
<rect class="k1" x="615.1666666666666" y="148.625" width="22" height="95.375" rx="2"/>
<text class="v" x="626.1666666666666" y="145.625" text-anchor="middle">7.63</text>
<rect class="k4" x="638.1666666666666" y="149.875" width="22" height="94.125" rx="2"/>
<text class="v" x="649.1666666666666" y="146.875" text-anchor="middle">7.53</text>
<text class="t" x="20" y="286">Qwen3.5-4B training state on the 48 GiB working set (GiB; red line = recommended working set)</text>
<rect class="k1" x="20" y="298" width="10" height="10" rx="2"/><text x="34" y="307">weights</text>
<rect class="k3" x="101" y="298" width="10" height="10" rx="2"/><text x="115" y="307">gradient bank</text>
<rect class="k2" x="224" y="298" width="10" height="10" rx="2"/><text x="238" y="307">optimizer</text>
<line class="g" x1="330.0" x2="330.0" y1="318" y2="438"/><text x="330.0" y="450" text-anchor="middle">0</text>
<line class="g" x1="390.0" x2="390.0" y1="318" y2="438"/><text x="390.0" y="450" text-anchor="middle">10</text>
<line class="g" x1="450.0" x2="450.0" y1="318" y2="438"/><text x="450.0" y="450" text-anchor="middle">20</text>
<line class="g" x1="510.0" x2="510.0" y1="318" y2="438"/><text x="510.0" y="450" text-anchor="middle">30</text>
<line class="g" x1="570.0" x2="570.0" y1="318" y2="438"/><text x="570.0" y="450" text-anchor="middle">40</text>
<line class="g" x1="630.0" x2="630.0" y1="318" y2="438"/><text x="630.0" y="450" text-anchor="middle">50</text>
<line class="g" x1="690.0" x2="690.0" y1="318" y2="438"/><text x="690.0" y="450" text-anchor="middle">60</text>
<line class="g" x1="750.0" x2="750.0" y1="318" y2="438"/><text x="750.0" y="450" text-anchor="middle">70</text>
<text x="324" y="332" text-anchor="end">f32 everywhere</text>
<rect class="k1" x="330" y="320" width="94.01999999999998" height="15"/>
<rect class="k3" x="424.02" y="320" width="94.01999999999998" height="15"/>
<rect class="k2" x="518.04" y="320" width="188.03999999999996" height="15"/>
<text class="v" x="710.0799999999999" y="332">62.7  does not fit</text>
<text x="324" y="352" text-anchor="end">bf16 weights+bank, f32 master, f32 moments</text>
<rect class="k1" x="330" y="340" width="47.04000000000002" height="15"/>
<rect class="k3" x="377.04" y="340" width="47.04000000000002" height="15"/>
<rect class="k2" x="424.08000000000004" y="340" width="282.0" height="15"/>
<text class="v" x="710.08" y="352">62.7  does not fit</text>
<text x="324" y="372" text-anchor="end">bf16 weights+bank, f32 master, 8-bit moments</text>
<rect class="k1" x="330" y="360" width="47.04000000000002" height="15"/>
<rect class="k3" x="377.04" y="360" width="47.04000000000002" height="15"/>
<rect class="k2" x="424.08000000000004" y="360" width="141.72000000000003" height="15"/>
<text class="v" x="569.8000000000001" y="372">39.3</text>
<text x="324" y="392" text-anchor="end">bf16 weights+bank, Kahan, bf16 moments (all bf16)</text>
<rect class="k1" x="330" y="380" width="47.04000000000002" height="15"/>
<rect class="k3" x="377.04" y="380" width="47.04000000000002" height="15"/>
<rect class="k2" x="424.08000000000004" y="380" width="141.0" height="15"/>
<text class="v" x="569.08" y="392">39.2</text>
<text x="324" y="412" text-anchor="end">bf16 weights+bank, Kahan, 8-bit moments</text>
<rect class="k1" x="330" y="400" width="47.04000000000002" height="15"/>
<rect class="k3" x="377.04" y="400" width="47.04000000000002" height="15"/>
<rect class="k2" x="424.08000000000004" y="400" width="94.74000000000001" height="15"/>
<text class="v" x="522.82" y="412">31.5</text>
<text x="324" y="432" text-anchor="end">bf16 weights+bank, stochastic rounding, 8-bit moments</text>
<rect class="k1" x="330" y="420" width="47.04000000000002" height="15"/>
<rect class="k3" x="377.04" y="420" width="47.04000000000002" height="15"/>
<rect class="k2" x="424.08000000000004" y="420" width="47.75999999999999" height="15"/>
<text class="v" x="475.84000000000003" y="432">23.6</text>
<line class="lim" x1="618.0" x2="618.0" y1="314" y2="438"/>
<text class="t" x="20" y="482">T = 2048 on battery power: exact-f32 time / bf16-operand time per op (blue: bf16 faster)</text>
<line class="g" x1="270" x2="270" y1="488" y2="672"/><text x="270" y="683" text-anchor="middle">0.5×</text>
<line class="g" x1="352.5" x2="352.5" y1="488" y2="672"/><text x="352.5" y="683" text-anchor="middle">1×</text>
<line class="g" x1="435.0" x2="435.0" y1="488" y2="672"/><text x="435.0" y="683" text-anchor="middle">2×</text>
<line class="g" x1="517.5" x2="517.5" y1="488" y2="672"/><text x="517.5" y="683" text-anchor="middle">4×</text>
<line class="g" x1="600" x2="600" y1="488" y2="672"/><text x="600" y="683" text-anchor="middle">8×</text>
<text x="264" y="500" text-anchor="end">gdn_train forward</text>
<rect class="fast" x="352.5" y="491" width="12.301629043650678" height="11" rx="2"/>
<text class="v" x="368.8016290436507" y="500" text-anchor="start">1.11×</text>
<text x="264" y="514" text-anchor="end">gdn_train backward</text>
<rect class="fast" x="352.5" y="505" width="3.1146863896910872" height="11" rx="2"/>
<text class="v" x="359.6146863896911" y="514" text-anchor="start">1.03×</text>
<text x="264" y="528" text-anchor="end">attn_train forward</text>
<rect class="fast" x="352.5" y="519" width="1.5" height="11" rx="2"/>
<text class="v" x="357.71775505566967" y="528" text-anchor="start">1.01×</text>
<text x="264" y="542" text-anchor="end">attn_train backward</text>
<rect class="slow" x="351.9596778368129" y="533" width="1.5" height="11" rx="2"/>
<text class="v" x="347.9596778368129" y="542" text-anchor="end">1.00×</text>
<text x="264" y="556" text-anchor="end">cross-entropy + grads</text>
<rect class="fast" x="352.5" y="547" width="153.4195442754608" height="11" rx="2"/>
<text class="v" x="509.9195442754608" y="556" text-anchor="start">3.63×</text>
<text x="264" y="570" text-anchor="end">rms_norm_bwd</text>
<rect class="slow" x="342.6754140650834" y="561" width="9.824585934916627" height="11" rx="2"/>
<text class="v" x="338.6754140650834" y="570" text-anchor="end">0.92×</text>
<text x="264" y="584" text-anchor="end">gated_rms_norm_bwd</text>
<rect class="fast" x="352.5" y="575" width="2.9906684172223095" height="11" rx="2"/>
<text class="v" x="359.4906684172223" y="584" text-anchor="start">1.03×</text>
<text x="264" y="598" text-anchor="end">swiglu_bwd</text>
<rect class="fast" x="352.5" y="589" width="6.470198373937308" height="11" rx="2"/>
<text class="v" x="362.9701983739373" y="598" text-anchor="start">1.06×</text>
<text x="264" y="612" text-anchor="end">conv1d_silu_bwd</text>
<rect class="slow" x="345.8141661374985" y="603" width="6.685833862501511" height="11" rx="2"/>
<text class="v" x="341.8141661374985" y="612" text-anchor="end">0.95×</text>
<text x="264" y="626" text-anchor="end">attn_qk_norm_rope_bwd</text>
<rect class="fast" x="352.5" y="617" width="2.8580183855348196" height="11" rx="2"/>
<text class="v" x="359.3580183855348" y="626" text-anchor="start">1.02×</text>
<text x="264" y="640" text-anchor="end">gdn_gates_bwd</text>
<rect class="fast" x="352.5" y="631" width="8.570862559439718" height="11" rx="2"/>
<text class="v" x="365.0708625594397" y="640" text-anchor="start">1.07×</text>
<text x="264" y="654" text-anchor="end">embed_rows_bwd</text>
<rect class="slow" x="348.56036665550965" y="645" width="3.939633344490346" height="11" rx="2"/>
<text class="v" x="344.56036665550965" y="654" text-anchor="end">0.97×</text>
<text x="264" y="668" text-anchor="end">train_step (whole step)</text>
<rect class="fast" x="352.5" y="659" width="106.27405756189864" height="11" rx="2"/>
<text class="v" x="462.77405756189864" y="668" text-anchor="start">2.44×</text>
<line class="ref" x1="352.5" x2="352.5" y1="488" y2="672"/>
<text class="st" x="20" y="700">Both runs ~2× slower than plugged-in numbers; compare the two with each other only.</text>
</svg>